# xmcd
#
# Track frame offsets:
#	150
#	1677
#	15717
#	30260
#	56175
#	78057
#	105485
#	127510
#	146445
#	161940
#	173415
#	195709
#
# Disc length: 2849 seconds
#
# Revision: 1
# Processed by: cddbd v1.4PL0 Copyright (c) Steve Scherf et al.
# Submitted via: audiograbber 1.81.03
#
DISCID=7f0b1f0c
DTITLE=Windy Austin and the Hothouse Tomato Boys - Romeo's Last Go Around
DYEAR=2052
DGENRE=Country
TTITLE0=Opus
TTITLE1=The Flower of Alamogordo
TTITLE2=Black Bottle
TTITLE3=Midge the Maniac
TTITLE4=Time and A Half
TTITLE5=Margarita
TTITLE6=Romeo's Last Go Around
TTITLE7=Wake Up People
TTITLE8=She Cut Me Off
TTITLE9=Who Killed Davey Moore
TTITLE10=Texas Bitch
TTITLE11=Daniel DeAllegro
EXTD=
EXTT0=
EXTT1=
EXTT2=
EXTT3=
EXTT4=
EXTT5=
EXTT6=
EXTT7=
EXTT8=
EXTT9=
EXTT10=
EXTT11=
PLAYORDER=
